<svg width="523" height="222" viewBox="0 0 523 222" fill="none" xmlns="http://www.w3.org/2000/svg">
<path d="M32.312 114.744H60.824C68.504 114.744 74.936 113.4 80.12 110.712C85.304 108.024 89.336 104.76 92.216 100.92C95.288 97.08 97.4 92.952 98.552 88.536C99.896 84.12 100.568 80.184 100.568 76.728C100.568 73.08 99.896 69.144 98.552 64.92C97.4 60.504 95.288 56.472 92.216 52.824C89.144 48.984 85.016 45.816 79.832 43.32C74.84 40.824 68.6 39.576 61.112 39.576H32.312V114.744ZM0.632 219V10.2H57.656C68.6 10.2 78.584 11.64 87.608 14.52C96.824 17.4 104.696 21.72 111.224 27.48C117.944 33.048 123.128 39.96 126.776 48.216C130.424 56.28 132.248 65.592 132.248 76.152C132.248 84.408 131 92.664 128.504 100.92C126.008 108.984 121.976 116.28 116.408 122.808C110.84 129.144 103.544 134.328 94.52 138.36C85.496 142.392 74.552 144.408 61.688 144.408H32.312V219H0.632ZM324.675 219H295.299C293.763 217.08 292.035 215.064 290.115 212.952C288.579 211.032 286.659 208.824 284.355 206.328C282.243 203.64 279.843 200.664 277.155 197.4C271.011 204.696 262.947 210.648 252.963 215.256C243.171 219.672 232.035 221.88 219.555 221.88C209.571 221.88 200.355 220.344 191.907 217.272C183.651 214.2 176.451 209.88 170.307 204.312C164.355 198.744 159.651 192.216 156.195 184.728C152.931 177.048 151.299 168.696 151.299 159.672C151.299 151.992 152.547 144.792 155.043 138.072C157.539 131.352 160.995 125.4 165.411 120.216C169.827 114.84 175.011 110.232 180.963 106.392C186.915 102.552 193.443 99.672 200.547 97.752C197.859 93.72 195.459 89.976 193.347 86.52C191.235 82.872 189.411 79.704 187.875 77.016C184.803 70.872 182.307 65.304 180.387 60.312C178.467 55.128 177.507 49.56 177.507 43.608C177.507 37.08 178.755 31.224 181.251 26.04C183.939 20.664 187.491 16.152 191.907 12.504C196.515 8.85599 201.795 6.07198 207.747 4.15199C213.891 2.03999 220.323 0.887993 227.043 0.695995C236.259 0.311989 244.611 1.36799 252.099 3.86399C259.587 6.35999 265.539 9.14399 269.955 12.216C269.955 12.216 269.187 13.272 267.651 15.384C266.307 17.304 264.771 19.416 263.043 21.72C261.507 24.024 259.971 26.232 258.435 28.344C257.091 30.264 256.419 31.32 256.419 31.512C254.307 29.976 251.715 28.632 248.643 27.48C245.571 26.136 242.019 25.272 237.987 24.888C233.955 24.312 229.923 24.312 225.891 24.888C221.859 25.464 218.211 26.616 214.947 28.344C211.683 30.072 208.995 32.472 206.883 35.544C204.963 38.616 204.003 42.36 204.003 46.776C204.003 51.96 204.963 56.568 206.883 60.6C208.803 64.632 210.147 67.128 210.915 68.088L273.699 151.608L295.587 95.448H321.795L290.691 174.36L324.675 219ZM216.099 119.64C210.915 119.832 205.923 120.984 201.123 123.096C196.323 125.016 192.003 127.704 188.163 131.16C184.515 134.616 181.539 138.744 179.235 143.544C177.123 148.152 176.067 153.048 176.067 158.232C176.067 165.144 177.315 171.096 179.811 176.088C182.499 180.888 185.955 184.92 190.179 188.184C194.403 191.448 199.203 193.848 204.579 195.384C210.147 196.92 215.715 197.688 221.283 197.688C225.123 197.688 229.059 197.208 233.091 196.248C237.123 195.288 240.963 194.04 244.611 192.504C248.259 190.776 251.619 188.76 254.691 186.456C257.763 184.152 260.259 181.656 262.179 178.968C254.883 169.752 247.203 160.056 239.139 149.88C231.075 139.512 223.395 129.432 216.099 119.64ZM355.288 10.2H407.704C428.824 10.2 446.68 13.368 461.272 19.704C475.864 26.04 487.672 34.392 496.696 44.76C505.912 54.936 512.536 66.456 516.568 79.32C520.792 91.992 522.904 104.664 522.904 117.336C522.904 132.888 520.12 147 514.552 159.672C508.984 172.152 501.4 182.808 491.8 191.64C482.2 200.472 471.064 207.288 458.392 212.088C445.72 216.696 432.28 219 418.072 219H355.288V10.2ZM413.464 189.048C424.6 189.048 434.872 187.416 444.28 184.152C453.88 180.888 462.136 176.184 469.048 170.04C476.152 163.704 481.624 156.024 485.464 147C489.496 137.784 491.512 127.224 491.512 115.32C491.512 102.648 489.304 91.608 484.888 82.2C480.472 72.792 474.712 65.016 467.608 58.872C460.504 52.536 452.44 47.928 443.416 45.048C434.584 41.976 425.56 40.44 416.344 40.44H386.68V189.048H413.464Z" fill="black"/>
</svg>
